<svg xmlns="http://www.w3.org/2000/svg" viewBox="0 0 32.041 32"><path d="M30 22v-4h-3.961l-2-2-8.02 8L18 26v6h4v-6h4v6h4v-6l2-2-2-2z" fill="#95cc29"/><path d="M12.022 0h-.003C5.688.018.932 4.756.164 10.237A14.554 14.554 0 000 12.278c-.007 1.999.617 3.747 2.081 6.33C3.55 21.212 5.904 24.79 9.59 30.727l.023.037.027.036a2.975 2.975 0 002.371 1.2h.02c.883 0 1.783-.414 2.37-1.2l.026-.035.023-.037a754.856 754.856 0 012.232-3.572l-1.693-1.064a827.36 827.36 0 00-2.198 3.516.98.98 0 01-.771.39.98.98 0 01-.771-.39c-3.671-5.91-6.025-9.497-7.425-11.982C2.413 15.11 2.007 13.842 2 12.278c0-.524.05-1.096.144-1.763C2.783 5.981 6.739 2.004 12.02 2c5.281.004 9.237 3.981 9.875 8.515.094.667.144 1.239.144 1.763a6.878 6.878 0 01-.299 2.043l1.916.574a8.878 8.878 0 00.383-2.616c0-.653-.062-1.318-.164-2.041C23.107 4.756 18.351.018 12.022 0z" fill="#666"/><path d="M8.039 12a4.004 4.004 0 004 4 4.004 4.004 0 004-4 4.004 4.004 0 00-4-4 4.004 4.004 0 00-4 4zm6 0a2.008 2.008 0 01-2 2 2.008 2.008 0 01-2-2c.002-1.1.9-1.998 2-2 1.101.002 1.999.9 2 2z" fill="#666"/><path fill="none" d="M.041 0h32v32h-32z"/></svg>