<svg width="21" height="24" fill="none" xmlns="http://www.w3.org/2000/svg"><path fill-rule="evenodd" clip-rule="evenodd" d="M10.237 0a10.253 10.253 0 017.201 2.988 10.078 10.078 0 012.965 7.165v.06c-.072 3.637-2.113 6.985-4.657 9.601a26.543 26.543 0 01-4.777 3.889 1.253 1.253 0 01-1.62 0A26.406 26.406 0 012.64 17.45 12.97 12.97 0 010 10.07C.024 4.488 4.609-.013 10.237 0zm0 13.514c.852 0 1.668-.324 2.268-.912a3.19 3.19 0 00.974-2.28c0-1.777-1.454-3.205-3.242-3.205A3.209 3.209 0 007.01 10.32c0 1.754 1.416 3.169 3.192 3.193h.036z" fill="#EE85B2"/></svg>