<svg width="27" height="24" fill="none" xmlns="http://www.w3.org/2000/svg"><path fill-rule="evenodd" clip-rule="evenodd" d="M19.919 0a6.742 6.742 0 016.748 6.733v10.534c0 3.72-3.027 6.733-6.748 6.733H6.747C3.025 24 0 20.987 0 17.267V6.733A6.734 6.734 0 016.747 0h13.172zm2.121 8.72l.107-.107a1.031 1.031 0 00-.015-1.333 1.121 1.121 0 00-.705-.347c-.28-.014-.547.08-.748.267L14.667 12A2.088 2.088 0 0112 12L6 7.2c-.415-.307-.988-.267-1.333.093-.36.36-.4.934-.095 1.334l.175.173 6.066 4.733a4.191 4.191 0 002.6.907c.946 0 1.867-.32 2.612-.907L22.04 8.72z" fill="#EE85B2"/></svg>