<svg width="17" height="24" fill="none" xmlns="http://www.w3.org/2000/svg"><path fill-rule="evenodd" clip-rule="evenodd" d="M.01 10.434c0-.743.01-1.485.018-2.23.005-.379.01-.758.013-1.138C.04 2.979 2.599 0 6.13 0h4.538c3.532 0 6.09 2.98 6.09 7.066.03 1.637.041 3.273.041 4.922 0 1.649-.01 3.31-.04 4.946C16.76 21.021 14.2 24 10.668 24H6.13C2.6 24 .041 21.02.041 16.922.02 15.38 0 13.802 0 12.2l.01-1.766zm9.926 10.734v.192c0 .809-.676 1.44-1.536 1.44-.84 0-1.536-.631-1.536-1.44v-.192c0-.787.696-1.44 1.536-1.44.86 0 1.536.653 1.536 1.44zM2.42 7.732c-.006.485-.013.968-.013 1.45L2.4 10.33c0 1.041.015 2.067.029 3.07 0 2.664 1.827 4.6 4.35 4.6h3.242c2.523 0 4.35-1.936 4.35-4.592.022-1.064.029-2.144.029-3.215 0-1.072-.007-2.136-.029-3.2 0-2.656-1.827-4.593-4.35-4.593H6.779c-2.523 0-4.35 1.937-4.35 4.593-.002.247-.006.494-.009.74z" fill="#EE85B2"/></svg>