<svg xmlns="http://www.w3.org/2000/svg" viewBox="0 0 500 500" shape-rendering="geometricPrecision" text-rendering="geometricPrecision" image-rendering="optimizeQuality" fill-rule="evenodd" clip-rule="evenodd"><defs><linearGradient id="a" gradientUnits="userSpaceOnUse" x1="102.734" y1="250.005" x2="397.272" y2="250.005"><stop offset="0" stop-color="#006db6"/><stop offset=".141" stop-color="#008eed"/><stop offset=".502" stop-color="#46b5ff"/><stop offset=".839" stop-color="#008eed"/><stop offset="1" stop-color="#006db6"/></linearGradient><linearGradient id="d" gradientUnits="userSpaceOnUse" x1="250.001" y1="64.87" x2="250.001" y2="145.83"><stop offset="0" stop-color="#cbcbcb"/><stop offset="1" stop-color="#fff"/></linearGradient><linearGradient id="b" gradientUnits="userSpaceOnUse" x1="318.151" y1="246.284" x2="181.856" y2="85.413"><stop offset="0" stop-color="#f2f2f2"/><stop offset="1" stop-color="#979797"/></linearGradient><radialGradient id="c" gradientUnits="objectBoundingBox" cx="50%" cy="50%" r="48%" fx="50%" fy="50%"><stop offset="0" stop-color="#f2f2f2"/><stop offset="1" stop-color="#d8d8d8"/></radialGradient></defs><path d="M250 19c81 0 147 66 147 147 0 25-6 48-17 68L264 473c-3 5-8 8-14 8s-11-3-14-8L120 234c-11-20-17-43-17-68 0-81 66-147 147-147z" fill="url(#a)"/><path d="M397 162v4c0 25-6 48-17 68L264 473c-3 5-8 8-14 8s-11-3-14-8L120 234c-11-20-17-43-17-68v-4c0 24 6 46 17 65l116 239c3 5 8 8 14 8s11-3 14-8l116-239c11-19 17-41 17-65z" fill="#0062a4"/><circle cx="250" cy="166" r="110" fill="url(#b)"/><circle cx="250" cy="166" r="104" fill="url(#c)"/><path d="M250 61c39 0 72 21 90 52-23 23-55 36-90 36s-67-13-90-36c18-31 51-52 90-52z" fill="url(#d)"/><path d="M250 19c81 0 147 66 147 147v3c-1-81-66-145-147-145S104 88 103 169v-3c0-81 66-147 147-147z" fill="#8bd1ff"/></svg>